<svg viewBox="0 0 200 200" xmlns="http://www.w3.org/2000/svg">
  <circle cx="100" cy="100" r="76" fill="#0072B8"/>
  <g fill="#0072B8">
    <rect x="91" y="8" width="18" height="20" rx="2" transform="rotate(0 100 100)"/>
    <rect x="91" y="8" width="18" height="20" rx="2" transform="rotate(30 100 100)"/>
    <rect x="91" y="8" width="18" height="20" rx="2" transform="rotate(60 100 100)"/>
    <rect x="91" y="8" width="18" height="20" rx="2" transform="rotate(90 100 100)"/>
    <rect x="91" y="8" width="18" height="20" rx="2" transform="rotate(120 100 100)"/>
    <rect x="91" y="8" width="18" height="20" rx="2" transform="rotate(150 100 100)"/>
    <rect x="91" y="8" width="18" height="20" rx="2" transform="rotate(180 100 100)"/>
    <rect x="91" y="8" width="18" height="20" rx="2" transform="rotate(210 100 100)"/>
    <rect x="91" y="8" width="18" height="20" rx="2" transform="rotate(240 100 100)"/>
    <rect x="91" y="8" width="18" height="20" rx="2" transform="rotate(270 100 100)"/>
    <rect x="91" y="8" width="18" height="20" rx="2" transform="rotate(300 100 100)"/>
    <rect x="91" y="8" width="18" height="20" rx="2" transform="rotate(330 100 100)"/>
  </g>
  <circle cx="100" cy="100" r="58" fill="#fff"/>
  <path d="M133.7 71.7 A44 44 0 1 0 133.7 128.3 L118.4 115.4 A24 24 0 1 1 118.4 84.6 Z" fill="#0072B8"/>
</svg>
